<?xml version="1.0"?>
<svg xmlns="http://www.w3.org/2000/svg" xmlns:xlink="http://www.w3.org/1999/xlink" viewBox="0 0 464.500000 376.000000" width="232.250000mm" height="188.000000mm" version="1.1">
<!-- <rect x="1.000000" y="1.000000" width="463.500000" height="375.000000" rx="0" ry="0" style="stroke:none;fill:#cccccc;"/> -->
<!-- <rect x="0.000000" y="0.000000" width="463.500000" height="375.000000" rx="0" ry="0" style="stroke:none;fill:#ffffff;"/> -->
<text x="10.000000" y="7.000000" font-family="Rubik" font-size="7"></text>
<!-- <rect x="49.000000" y="213.000000" width="24.000000" height="24.000000" rx="0" ry="0" style="stroke:none;fill:#cccccc;"/> -->
<rect x="48.000000" y="212.000000" width="24.000000" height="24.000000" rx="0" ry="0" style="stroke:none;fill:#4B71A1;"/>
<text x="60.000000" y="226.000000" font-family="Rubik" font-size="7" text-anchor="middle" fill="#FFFFFF">+</text>
<circle cx="50.000000" cy="214.000000" r="1"/>
<line x1="45.000000" y1="219.000000" x2="48.000000" y2="220.000000"  transform="rotate(0.000000,48.000000,220.000000)" style="stroke: black; stroke-width:0.25;"/>
<line x1="45.000000" y1="221.000000" x2="48.000000" y2="220.000000"  transform="rotate(0.000000,48.000000,220.000000)" style="stroke: black; stroke-width:0.25;"/>
<line x1="45.000000" y1="227.000000" x2="48.000000" y2="228.000000"  transform="rotate(0.000000,48.000000,228.000000)" style="stroke: black; stroke-width:0.25;"/>
<line x1="45.000000" y1="229.000000" x2="48.000000" y2="228.000000"  transform="rotate(0.000000,48.000000,228.000000)" style="stroke: black; stroke-width:0.25;"/>
<!-- <rect x="91.000000" y="213.000000" width="24.000000" height="24.000000" rx="0" ry="0" style="stroke:none;fill:#cccccc;"/> -->
<rect x="90.000000" y="212.000000" width="24.000000" height="24.000000" rx="0" ry="0" style="stroke:none;fill:#47945E;"/>
<text x="102.000000" y="226.000000" font-family="Rubik" font-size="7" text-anchor="middle" fill="#FFFFFF">x</text>
<circle cx="92.000000" cy="214.000000" r="1"/>
<line x1="87.000000" y1="223.000000" x2="90.000000" y2="224.000000"  transform="rotate(0.000000,90.000000,224.000000)" style="stroke: black; stroke-width:0.25;"/>
<line x1="87.000000" y1="225.000000" x2="90.000000" y2="224.000000"  transform="rotate(0.000000,90.000000,224.000000)" style="stroke: black; stroke-width:0.25;"/>
<!-- <rect x="233.250000" y="107.000000" width="24.000000" height="24.000000" rx="0" ry="0" style="stroke:none;fill:#cccccc;"/> -->
<rect x="232.250000" y="106.000000" width="24.000000" height="24.000000" rx="0" ry="0" style="stroke:none;fill:#47945E;"/>
<text x="244.250000" y="120.000000" font-family="Rubik" font-size="7" text-anchor="middle" fill="#FFFFFF">x</text>
<circle cx="234.250000" cy="108.000000" r="1"/>
<!-- <rect x="172.350000" y="149.000000" width="25.800000" height="24.000000" rx="0" ry="0" style="stroke:none;fill:#cccccc;"/> -->
<rect x="171.350000" y="148.000000" width="25.800000" height="24.000000" rx="0" ry="0" style="stroke:none;fill:#f44800;"/>
<text x="184.250000" y="162.000000" font-family="Rubik" font-size="7" text-anchor="middle" fill="#FFFFFF">192000</text>
<circle cx="173.350000" cy="150.000000" r="1"/>
<!-- <rect x="153.250000" y="181.000000" width="24.000000" height="24.000000" rx="0" ry="0" style="stroke:none;fill:#cccccc;"/> -->
<rect x="152.250000" y="180.000000" width="24.000000" height="24.000000" rx="0" ry="0" style="stroke:none;fill:#f44800;"/>
<text x="164.250000" y="194.000000" font-family="Rubik" font-size="7" text-anchor="middle" fill="#FFFFFF">1</text>
<circle cx="154.250000" cy="182.000000" r="1"/>
<!-- <rect x="133.000000" y="213.000000" width="64.500000" height="24.000000" rx="0" ry="0" style="stroke:none;fill:#cccccc;"/> -->
<rect x="132.000000" y="212.000000" width="64.500000" height="24.000000" rx="0" ry="0" style="stroke:none;fill:#4B71A1;"/>
<text x="164.250000" y="226.000000" font-family="Rubik" font-size="7" text-anchor="middle" fill="#FFFFFF">fSamplingFreq</text>
<circle cx="134.000000" cy="214.000000" r="1"/>
<!-- <rect x="213.500000" y="197.000000" width="24.000000" height="24.000000" rx="0" ry="0" style="stroke:none;fill:#cccccc;"/> -->
<rect x="212.500000" y="196.000000" width="24.000000" height="24.000000" rx="0" ry="0" style="stroke:none;fill:#4B71A1;"/>
<text x="224.500000" y="210.000000" font-family="Rubik" font-size="7" text-anchor="middle" fill="#FFFFFF">max</text>
<circle cx="214.500000" cy="198.000000" r="1"/>
<line x1="209.500000" y1="203.000000" x2="212.500000" y2="204.000000"  transform="rotate(0.000000,212.500000,204.000000)" style="stroke: black; stroke-width:0.25;"/>
<line x1="209.500000" y1="205.000000" x2="212.500000" y2="204.000000"  transform="rotate(0.000000,212.500000,204.000000)" style="stroke: black; stroke-width:0.25;"/>
<line x1="209.500000" y1="211.000000" x2="212.500000" y2="212.000000"  transform="rotate(0.000000,212.500000,212.000000)" style="stroke: black; stroke-width:0.25;"/>
<line x1="209.500000" y1="213.000000" x2="212.500000" y2="212.000000"  transform="rotate(0.000000,212.500000,212.000000)" style="stroke: black; stroke-width:0.25;"/>
<!-- <rect x="253.500000" y="181.000000" width="24.000000" height="24.000000" rx="0" ry="0" style="stroke:none;fill:#cccccc;"/> -->
<rect x="252.500000" y="180.000000" width="24.000000" height="24.000000" rx="0" ry="0" style="stroke:none;fill:#4B71A1;"/>
<text x="264.500000" y="194.000000" font-family="Rubik" font-size="7" text-anchor="middle" fill="#FFFFFF">min</text>
<circle cx="254.500000" cy="182.000000" r="1"/>
<line x1="249.500000" y1="187.000000" x2="252.500000" y2="188.000000"  transform="rotate(0.000000,252.500000,188.000000)" style="stroke: black; stroke-width:0.25;"/>
<line x1="249.500000" y1="189.000000" x2="252.500000" y2="188.000000"  transform="rotate(0.000000,252.500000,188.000000)" style="stroke: black; stroke-width:0.25;"/>
<line x1="249.500000" y1="195.000000" x2="252.500000" y2="196.000000"  transform="rotate(0.000000,252.500000,196.000000)" style="stroke: black; stroke-width:0.25;"/>
<line x1="249.500000" y1="197.000000" x2="252.500000" y2="196.000000"  transform="rotate(0.000000,252.500000,196.000000)" style="stroke: black; stroke-width:0.25;"/>
<line x1="123.000000" y1="139.000000" x2="123.000000" y2="245.000000"  style="stroke: black; stroke-linecap:round; stroke-width:0.25; stroke-dasharray:3,3;"/>
<line x1="123.000000" y1="245.000000" x2="285.500000" y2="245.000000"  style="stroke: black; stroke-linecap:round; stroke-width:0.25; stroke-dasharray:3,3;"/>
<line x1="285.500000" y1="245.000000" x2="285.500000" y2="139.000000"  style="stroke: black; stroke-linecap:round; stroke-width:0.25; stroke-dasharray:3,3;"/>
<line x1="123.000000" y1="139.000000" x2="128.000000" y2="139.000000"  style="stroke: black; stroke-linecap:round; stroke-width:0.25; stroke-dasharray:3,3;"/>
<line x1="140.900000" y1="139.000000" x2="285.500000" y2="139.000000"  style="stroke: black; stroke-linecap:round; stroke-width:0.25; stroke-dasharray:3,3;"/>
<text x="128.000000" y="141.000000" font-family="Rubik" font-size="7">SR</text>
<!-- <rect x="193.250000" y="255.000000" width="24.000000" height="24.000000" rx="0" ry="0" style="stroke:none;fill:#cccccc;"/> -->
<rect x="192.250000" y="254.000000" width="24.000000" height="24.000000" rx="0" ry="0" style="stroke:none;fill:#f44800;"/>
<text x="204.250000" y="268.000000" font-family="Rubik" font-size="7" text-anchor="middle" fill="#FFFFFF">2</text>
<circle cx="194.250000" cy="256.000000" r="1"/>
<!-- <rect x="303.500000" y="197.000000" width="24.000000" height="24.000000" rx="0" ry="0" style="stroke:none;fill:#cccccc;"/> -->
<rect x="302.500000" y="196.000000" width="24.000000" height="24.000000" rx="0" ry="0" style="stroke:none;fill:#4B71A1;"/>
<text x="314.500000" y="210.000000" font-family="Rubik" font-size="7" text-anchor="middle" fill="#FFFFFF">/</text>
<circle cx="304.500000" cy="198.000000" r="1"/>
<line x1="299.500000" y1="203.000000" x2="302.500000" y2="204.000000"  transform="rotate(0.000000,302.500000,204.000000)" style="stroke: black; stroke-width:0.25;"/>
<line x1="299.500000" y1="205.000000" x2="302.500000" y2="204.000000"  transform="rotate(0.000000,302.500000,204.000000)" style="stroke: black; stroke-width:0.25;"/>
<line x1="299.500000" y1="211.000000" x2="302.500000" y2="212.000000"  transform="rotate(0.000000,302.500000,212.000000)" style="stroke: black; stroke-width:0.25;"/>
<line x1="299.500000" y1="213.000000" x2="302.500000" y2="212.000000"  transform="rotate(0.000000,302.500000,212.000000)" style="stroke: black; stroke-width:0.25;"/>
<!-- <rect x="193.250000" y="287.000000" width="24.000000" height="24.000000" rx="0" ry="0" style="stroke:none;fill:#cccccc;"/> -->
<rect x="192.250000" y="286.000000" width="24.000000" height="24.000000" rx="0" ry="0" style="stroke:none;fill:#f44800;"/>
<text x="204.250000" y="300.000000" font-family="Rubik" font-size="7" text-anchor="middle" fill="#FFFFFF">0</text>
<circle cx="194.250000" cy="288.000000" r="1"/>
<!-- <rect x="193.250000" y="319.000000" width="24.000000" height="24.000000" rx="0" ry="0" style="stroke:none;fill:#cccccc;"/> -->
<rect x="192.250000" y="318.000000" width="24.000000" height="24.000000" rx="0" ry="0" style="stroke:none;fill:#f44800;"/>
<text x="204.250000" y="332.000000" font-family="Rubik" font-size="7" text-anchor="middle" fill="#FFFFFF">1</text>
<circle cx="194.250000" cy="320.000000" r="1"/>
<!-- <rect x="233.250000" y="303.000000" width="24.000000" height="24.000000" rx="0" ry="0" style="stroke:none;fill:#cccccc;"/> -->
<rect x="232.250000" y="302.000000" width="24.000000" height="24.000000" rx="0" ry="0" style="stroke:none;fill:#4B71A1;"/>
<text x="244.250000" y="316.000000" font-family="Rubik" font-size="7" text-anchor="middle" fill="#FFFFFF">max</text>
<circle cx="234.250000" cy="304.000000" r="1"/>
<line x1="229.250000" y1="309.000000" x2="232.250000" y2="310.000000"  transform="rotate(0.000000,232.250000,310.000000)" style="stroke: black; stroke-width:0.25;"/>
<line x1="229.250000" y1="311.000000" x2="232.250000" y2="310.000000"  transform="rotate(0.000000,232.250000,310.000000)" style="stroke: black; stroke-width:0.25;"/>
<line x1="229.250000" y1="317.000000" x2="232.250000" y2="318.000000"  transform="rotate(0.000000,232.250000,318.000000)" style="stroke: black; stroke-width:0.25;"/>
<line x1="229.250000" y1="319.000000" x2="232.250000" y2="318.000000"  transform="rotate(0.000000,232.250000,318.000000)" style="stroke: black; stroke-width:0.25;"/>
<!-- <rect x="343.500000" y="229.000000" width="24.000000" height="24.000000" rx="0" ry="0" style="stroke:none;fill:#cccccc;"/> -->
<rect x="342.500000" y="228.000000" width="24.000000" height="24.000000" rx="0" ry="0" style="stroke:none;fill:#4B71A1;"/>
<text x="354.500000" y="242.000000" font-family="Rubik" font-size="7" text-anchor="middle" fill="#FFFFFF">min</text>
<circle cx="344.500000" cy="230.000000" r="1"/>
<line x1="339.500000" y1="235.000000" x2="342.500000" y2="236.000000"  transform="rotate(0.000000,342.500000,236.000000)" style="stroke: black; stroke-width:0.25;"/>
<line x1="339.500000" y1="237.000000" x2="342.500000" y2="236.000000"  transform="rotate(0.000000,342.500000,236.000000)" style="stroke: black; stroke-width:0.25;"/>
<line x1="339.500000" y1="243.000000" x2="342.500000" y2="244.000000"  transform="rotate(0.000000,342.500000,244.000000)" style="stroke: black; stroke-width:0.25;"/>
<line x1="339.500000" y1="245.000000" x2="342.500000" y2="244.000000"  transform="rotate(0.000000,342.500000,244.000000)" style="stroke: black; stroke-width:0.25;"/>
<!-- <rect x="383.500000" y="213.000000" width="24.000000" height="24.000000" rx="0" ry="0" style="stroke:none;fill:#cccccc;"/> -->
<rect x="382.500000" y="212.000000" width="24.000000" height="24.000000" rx="0" ry="0" style="stroke:none;fill:#4B71A1;"/>
<text x="394.500000" y="226.000000" font-family="Rubik" font-size="7" text-anchor="middle" fill="#FFFFFF">@</text>
<circle cx="384.500000" cy="214.000000" r="1"/>
<line x1="379.500000" y1="219.000000" x2="382.500000" y2="220.000000"  transform="rotate(0.000000,382.500000,220.000000)" style="stroke: black; stroke-width:0.25;"/>
<line x1="379.500000" y1="221.000000" x2="382.500000" y2="220.000000"  transform="rotate(0.000000,382.500000,220.000000)" style="stroke: black; stroke-width:0.25;"/>
<line x1="379.500000" y1="227.000000" x2="382.500000" y2="228.000000"  transform="rotate(0.000000,382.500000,228.000000)" style="stroke: black; stroke-width:0.25;"/>
<line x1="379.500000" y1="229.000000" x2="382.500000" y2="228.000000"  transform="rotate(0.000000,382.500000,228.000000)" style="stroke: black; stroke-width:0.25;"/>
<line x1="81.000000" y1="97.000000" x2="81.000000" y2="351.000000"  style="stroke: black; stroke-linecap:round; stroke-width:0.25; stroke-dasharray:3,3;"/>
<line x1="81.000000" y1="351.000000" x2="415.500000" y2="351.000000"  style="stroke: black; stroke-linecap:round; stroke-width:0.25; stroke-dasharray:3,3;"/>
<line x1="415.500000" y1="351.000000" x2="415.500000" y2="97.000000"  style="stroke: black; stroke-linecap:round; stroke-width:0.25; stroke-dasharray:3,3;"/>
<line x1="81.000000" y1="97.000000" x2="86.000000" y2="97.000000"  style="stroke: black; stroke-linecap:round; stroke-width:0.25; stroke-dasharray:3,3;"/>
<line x1="105.000000" y1="97.000000" x2="415.500000" y2="97.000000"  style="stroke: black; stroke-linecap:round; stroke-width:0.25; stroke-dasharray:3,3;"/>
<text x="86.000000" y="99.000000" font-family="Rubik" font-size="7">delay</text>
<!-- <rect x="260.350000" y="57.000000" width="25.800000" height="24.000000" rx="0" ry="0" style="stroke:none;fill:#cccccc;"/> -->
<rect x="259.350000" y="56.000000" width="25.800000" height="24.000000" rx="0" ry="0" style="stroke:none;fill:#f44800;"/>
<text x="272.250000" y="70.000000" font-family="Rubik" font-size="7" text-anchor="middle" fill="#FFFFFF">0.999</text>
<circle cx="283.150000" cy="78.000000" r="1"/>
<!-- <rect x="261.250000" y="25.000000" width="24.000000" height="24.000000" rx="0" ry="0" style="stroke:none;fill:#cccccc;"/> -->
<rect x="260.250000" y="24.000000" width="24.000000" height="24.000000" rx="0" ry="0" style="stroke:none;fill:#f44800;"/>
<text x="272.250000" y="38.000000" font-family="Rubik" font-size="7" text-anchor="middle" fill="#FFFFFF">0.5</text>
<circle cx="282.250000" cy="46.000000" r="1"/>
<!-- <rect x="220.350000" y="41.000000" width="24.000000" height="24.000000" rx="0" ry="0" style="stroke:none;fill:#cccccc;"/> -->
<rect x="219.350000" y="40.000000" width="24.000000" height="24.000000" rx="0" ry="0" style="stroke:none;fill:#4B71A1;"/>
<text x="231.350000" y="54.000000" font-family="Rubik" font-size="7" text-anchor="middle" fill="#FFFFFF">min</text>
<circle cx="241.350000" cy="62.000000" r="1"/>
<line x1="246.350000" y1="55.000000" x2="243.350000" y2="56.000000"  transform="rotate(0.000000,243.350000,56.000000)" style="stroke: black; stroke-width:0.25;"/>
<line x1="246.350000" y1="57.000000" x2="243.350000" y2="56.000000"  transform="rotate(0.000000,243.350000,56.000000)" style="stroke: black; stroke-width:0.25;"/>
<line x1="246.350000" y1="47.000000" x2="243.350000" y2="48.000000"  transform="rotate(0.000000,243.350000,48.000000)" style="stroke: black; stroke-width:0.25;"/>
<line x1="246.350000" y1="49.000000" x2="243.350000" y2="48.000000"  transform="rotate(0.000000,243.350000,48.000000)" style="stroke: black; stroke-width:0.25;"/>
<!-- <rect x="180.350000" y="45.000000" width="24.000000" height="24.000000" rx="0" ry="0" style="stroke:none;fill:#cccccc;"/> -->
<rect x="179.350000" y="44.000000" width="24.000000" height="24.000000" rx="0" ry="0" style="stroke:none;fill:#4B71A1;"/>
<text x="191.350000" y="58.000000" font-family="Rubik" font-size="7" text-anchor="middle" fill="#FFFFFF">*</text>
<circle cx="201.350000" cy="66.000000" r="1"/>
<line x1="206.350000" y1="59.000000" x2="203.350000" y2="60.000000"  transform="rotate(0.000000,203.350000,60.000000)" style="stroke: black; stroke-width:0.25;"/>
<line x1="206.350000" y1="61.000000" x2="203.350000" y2="60.000000"  transform="rotate(0.000000,203.350000,60.000000)" style="stroke: black; stroke-width:0.25;"/>
<line x1="206.350000" y1="51.000000" x2="203.350000" y2="52.000000"  transform="rotate(0.000000,203.350000,52.000000)" style="stroke: black; stroke-width:0.25;"/>
<line x1="206.350000" y1="53.000000" x2="203.350000" y2="52.000000"  transform="rotate(0.000000,203.350000,52.000000)" style="stroke: black; stroke-width:0.25;"/>
<line x1="418.500000" y1="224.000000" x2="418.500000" y2="220.000000"  style="stroke:black; stroke-linecap:round; stroke-width:0.25;"/>
<line x1="418.500000" y1="220.000000" x2="422.500000" y2="220.000000"  style="stroke:black; stroke-linecap:round; stroke-width:0.25;"/>
<line x1="422.500000" y1="220.000000" x2="422.500000" y2="224.000000"  style="stroke:black; stroke-linecap:round; stroke-width:0.25;"/>
<line x1="15.000000" y1="15.000000" x2="15.000000" y2="361.000000"  style="stroke: black; stroke-linecap:round; stroke-width:0.25; stroke-dasharray:3,3;"/>
<line x1="15.000000" y1="361.000000" x2="449.500000" y2="361.000000"  style="stroke: black; stroke-linecap:round; stroke-width:0.25; stroke-dasharray:3,3;"/>
<line x1="449.500000" y1="361.000000" x2="449.500000" y2="15.000000"  style="stroke: black; stroke-linecap:round; stroke-width:0.25; stroke-dasharray:3,3;"/>
<line x1="15.000000" y1="15.000000" x2="20.000000" y2="15.000000"  style="stroke: black; stroke-linecap:round; stroke-width:0.25; stroke-dasharray:3,3;"/>
<line x1="49.025000" y1="15.000000" x2="449.500000" y2="15.000000"  style="stroke: black; stroke-linecap:round; stroke-width:0.25; stroke-dasharray:3,3;"/>
<text x="20.000000" y="17.000000" font-family="Rubik" font-size="7">process</text>
<line x1="451.500000" y1="187.000000" x2="454.500000" y2="188.000000"  transform="rotate(0.000000,454.500000,188.000000)" style="stroke: black; stroke-width:0.25;"/>
<line x1="451.500000" y1="189.000000" x2="454.500000" y2="188.000000"  transform="rotate(0.000000,454.500000,188.000000)" style="stroke: black; stroke-width:0.25;"/>
<line x1="10.000000" y1="188.000000" x2="20.000000" y2="188.000000"  style="stroke:black; stroke-linecap:round; stroke-width:0.25;"/>
<line x1="20.000000" y1="188.000000" x2="24.000000" y2="188.000000"  style="stroke:black; stroke-linecap:round; stroke-width:0.25;"/>
<line x1="24.000000" y1="188.000000" x2="28.000000" y2="188.000000"  style="stroke:black; stroke-linecap:round; stroke-width:0.25;"/>
<line x1="28.000000" y1="188.000000" x2="36.000000" y2="188.000000"  style="stroke:black; stroke-linecap:round; stroke-width:0.25;"/>
<line x1="36.000000" y1="188.000000" x2="36.000000" y2="228.000000"  style="stroke:black; stroke-linecap:round; stroke-width:0.25;"/>
<line x1="36.000000" y1="228.000000" x2="36.000000" y2="228.000000"  style="stroke:black; stroke-linecap:round; stroke-width:0.25;"/>
<line x1="36.000000" y1="228.000000" x2="44.000000" y2="228.000000"  style="stroke:black; stroke-linecap:round; stroke-width:0.25;"/>
<line x1="44.000000" y1="56.000000" x2="44.000000" y2="56.000000"  style="stroke:black; stroke-linecap:round; stroke-width:0.25;"/>
<line x1="44.000000" y1="56.000000" x2="44.000000" y2="220.000000"  style="stroke:black; stroke-linecap:round; stroke-width:0.25;"/>
<line x1="44.000000" y1="220.000000" x2="44.000000" y2="220.000000"  style="stroke:black; stroke-linecap:round; stroke-width:0.25;"/>
<line x1="44.000000" y1="220.000000" x2="48.000000" y2="220.000000"  style="stroke:black; stroke-linecap:round; stroke-width:0.25;"/>
<line x1="44.000000" y1="228.000000" x2="48.000000" y2="228.000000"  style="stroke:black; stroke-linecap:round; stroke-width:0.25;"/>
<line x1="72.000000" y1="224.000000" x2="76.000000" y2="224.000000"  style="stroke:black; stroke-linecap:round; stroke-width:0.25;"/>
<line x1="76.000000" y1="224.000000" x2="76.000000" y2="224.000000"  style="stroke:black; stroke-linecap:round; stroke-width:0.25;"/>
<line x1="76.000000" y1="224.000000" x2="86.000000" y2="224.000000"  style="stroke:black; stroke-linecap:round; stroke-width:0.25;"/>
<line x1="86.000000" y1="224.000000" x2="90.000000" y2="224.000000"  style="stroke:black; stroke-linecap:round; stroke-width:0.25;"/>
<line x1="175.350000" y1="56.000000" x2="44.000000" y2="56.000000"  style="stroke:black; stroke-linecap:round; stroke-width:0.25;"/>
<line x1="176.250000" y1="192.000000" x2="180.250000" y2="192.000000"  style="stroke:black; stroke-linecap:round; stroke-width:0.25;"/>
<line x1="179.350000" y1="56.000000" x2="175.350000" y2="56.000000"  style="stroke:black; stroke-linecap:round; stroke-width:0.25;"/>
<line x1="180.250000" y1="192.000000" x2="200.500000" y2="192.000000"  style="stroke:black; stroke-linecap:round; stroke-width:0.25;"/>
<line x1="196.500000" y1="224.000000" x2="200.500000" y2="224.000000"  style="stroke:black; stroke-linecap:round; stroke-width:0.25;"/>
<line x1="197.150000" y1="160.000000" x2="201.150000" y2="160.000000"  style="stroke:black; stroke-linecap:round; stroke-width:0.25;"/>
<line x1="200.500000" y1="192.000000" x2="208.500000" y2="192.000000"  style="stroke:black; stroke-linecap:round; stroke-width:0.25;"/>
<line x1="200.500000" y1="212.000000" x2="208.500000" y2="212.000000"  style="stroke:black; stroke-linecap:round; stroke-width:0.25;"/>
<line x1="200.500000" y1="224.000000" x2="200.500000" y2="212.000000"  style="stroke:black; stroke-linecap:round; stroke-width:0.25;"/>
<line x1="200.500000" y1="224.000000" x2="200.500000" y2="224.000000"  style="stroke:black; stroke-linecap:round; stroke-width:0.25;"/>
<line x1="201.150000" y1="160.000000" x2="240.500000" y2="160.000000"  style="stroke:black; stroke-linecap:round; stroke-width:0.25;"/>
<line x1="207.350000" y1="52.000000" x2="203.350000" y2="52.000000"  style="stroke:black; stroke-linecap:round; stroke-width:0.25;"/>
<line x1="207.350000" y1="60.000000" x2="203.350000" y2="60.000000"  style="stroke:black; stroke-linecap:round; stroke-width:0.25;"/>
<line x1="207.350000" y1="60.000000" x2="207.350000" y2="60.000000"  style="stroke:black; stroke-linecap:round; stroke-width:0.25;"/>
<line x1="207.350000" y1="88.000000" x2="207.350000" y2="60.000000"  style="stroke:black; stroke-linecap:round; stroke-width:0.25;"/>
<line x1="208.500000" y1="192.000000" x2="208.500000" y2="204.000000"  style="stroke:black; stroke-linecap:round; stroke-width:0.25;"/>
<line x1="208.500000" y1="204.000000" x2="208.500000" y2="204.000000"  style="stroke:black; stroke-linecap:round; stroke-width:0.25;"/>
<line x1="208.500000" y1="204.000000" x2="212.500000" y2="204.000000"  style="stroke:black; stroke-linecap:round; stroke-width:0.25;"/>
<line x1="208.500000" y1="212.000000" x2="212.500000" y2="212.000000"  style="stroke:black; stroke-linecap:round; stroke-width:0.25;"/>
<line x1="215.350000" y1="52.000000" x2="207.350000" y2="52.000000"  style="stroke:black; stroke-linecap:round; stroke-width:0.25;"/>
<line x1="215.350000" y1="88.000000" x2="207.350000" y2="88.000000"  style="stroke:black; stroke-linecap:round; stroke-width:0.25;"/>
<line x1="216.250000" y1="266.000000" x2="220.250000" y2="266.000000"  style="stroke:black; stroke-linecap:round; stroke-width:0.25;"/>
<line x1="216.250000" y1="298.000000" x2="220.250000" y2="298.000000"  style="stroke:black; stroke-linecap:round; stroke-width:0.25;"/>
<line x1="216.250000" y1="330.000000" x2="220.250000" y2="330.000000"  style="stroke:black; stroke-linecap:round; stroke-width:0.25;"/>
<line x1="219.350000" y1="52.000000" x2="215.350000" y2="52.000000"  style="stroke:black; stroke-linecap:round; stroke-width:0.25;"/>
<line x1="220.250000" y1="266.000000" x2="290.500000" y2="266.000000"  style="stroke:black; stroke-linecap:round; stroke-width:0.25;"/>
<line x1="220.250000" y1="298.000000" x2="228.250000" y2="298.000000"  style="stroke:black; stroke-linecap:round; stroke-width:0.25;"/>
<line x1="220.250000" y1="318.000000" x2="228.250000" y2="318.000000"  style="stroke:black; stroke-linecap:round; stroke-width:0.25;"/>
<line x1="220.250000" y1="330.000000" x2="220.250000" y2="318.000000"  style="stroke:black; stroke-linecap:round; stroke-width:0.25;"/>
<line x1="220.250000" y1="330.000000" x2="220.250000" y2="330.000000"  style="stroke:black; stroke-linecap:round; stroke-width:0.25;"/>
<line x1="228.250000" y1="298.000000" x2="228.250000" y2="310.000000"  style="stroke:black; stroke-linecap:round; stroke-width:0.25;"/>
<line x1="228.250000" y1="310.000000" x2="228.250000" y2="310.000000"  style="stroke:black; stroke-linecap:round; stroke-width:0.25;"/>
<line x1="228.250000" y1="310.000000" x2="232.250000" y2="310.000000"  style="stroke:black; stroke-linecap:round; stroke-width:0.25;"/>
<line x1="228.250000" y1="318.000000" x2="232.250000" y2="318.000000"  style="stroke:black; stroke-linecap:round; stroke-width:0.25;"/>
<line x1="236.500000" y1="208.000000" x2="240.500000" y2="208.000000"  style="stroke:black; stroke-linecap:round; stroke-width:0.25;"/>
<line x1="240.500000" y1="160.000000" x2="248.500000" y2="160.000000"  style="stroke:black; stroke-linecap:round; stroke-width:0.25;"/>
<line x1="240.500000" y1="196.000000" x2="248.500000" y2="196.000000"  style="stroke:black; stroke-linecap:round; stroke-width:0.25;"/>
<line x1="240.500000" y1="208.000000" x2="240.500000" y2="196.000000"  style="stroke:black; stroke-linecap:round; stroke-width:0.25;"/>
<line x1="240.500000" y1="208.000000" x2="240.500000" y2="208.000000"  style="stroke:black; stroke-linecap:round; stroke-width:0.25;"/>
<line x1="247.350000" y1="48.000000" x2="243.350000" y2="48.000000"  style="stroke:black; stroke-linecap:round; stroke-width:0.25;"/>
<line x1="247.350000" y1="56.000000" x2="243.350000" y2="56.000000"  style="stroke:black; stroke-linecap:round; stroke-width:0.25;"/>
<line x1="247.350000" y1="56.000000" x2="247.350000" y2="56.000000"  style="stroke:black; stroke-linecap:round; stroke-width:0.25;"/>
<line x1="247.350000" y1="68.000000" x2="247.350000" y2="56.000000"  style="stroke:black; stroke-linecap:round; stroke-width:0.25;"/>
<line x1="248.500000" y1="160.000000" x2="248.500000" y2="188.000000"  style="stroke:black; stroke-linecap:round; stroke-width:0.25;"/>
<line x1="248.500000" y1="188.000000" x2="248.500000" y2="188.000000"  style="stroke:black; stroke-linecap:round; stroke-width:0.25;"/>
<line x1="248.500000" y1="188.000000" x2="252.500000" y2="188.000000"  style="stroke:black; stroke-linecap:round; stroke-width:0.25;"/>
<line x1="248.500000" y1="196.000000" x2="252.500000" y2="196.000000"  style="stroke:black; stroke-linecap:round; stroke-width:0.25;"/>
<line x1="252.250000" y1="88.000000" x2="215.350000" y2="88.000000"  style="stroke:black; stroke-linecap:round; stroke-width:0.25;"/>
<line x1="255.350000" y1="36.000000" x2="255.350000" y2="36.000000"  style="stroke:black; stroke-linecap:round; stroke-width:0.25;"/>
<line x1="255.350000" y1="36.000000" x2="255.350000" y2="48.000000"  style="stroke:black; stroke-linecap:round; stroke-width:0.25;"/>
<line x1="255.350000" y1="48.000000" x2="247.350000" y2="48.000000"  style="stroke:black; stroke-linecap:round; stroke-width:0.25;"/>
<line x1="255.350000" y1="68.000000" x2="247.350000" y2="68.000000"  style="stroke:black; stroke-linecap:round; stroke-width:0.25;"/>
<line x1="256.250000" y1="36.000000" x2="255.350000" y2="36.000000"  style="stroke:black; stroke-linecap:round; stroke-width:0.25;"/>
<line x1="256.250000" y1="118.000000" x2="260.250000" y2="118.000000"  style="stroke:black; stroke-linecap:round; stroke-width:0.25;"/>
<line x1="256.250000" y1="314.000000" x2="260.250000" y2="314.000000"  style="stroke:black; stroke-linecap:round; stroke-width:0.25;"/>
<line x1="259.350000" y1="68.000000" x2="255.350000" y2="68.000000"  style="stroke:black; stroke-linecap:round; stroke-width:0.25;"/>
<line x1="260.250000" y1="36.000000" x2="256.250000" y2="36.000000"  style="stroke:black; stroke-linecap:round; stroke-width:0.25;"/>
<line x1="260.250000" y1="118.000000" x2="370.500000" y2="118.000000"  style="stroke:black; stroke-linecap:round; stroke-width:0.25;"/>
<line x1="260.250000" y1="314.000000" x2="330.500000" y2="314.000000"  style="stroke:black; stroke-linecap:round; stroke-width:0.25;"/>
<line x1="276.500000" y1="192.000000" x2="280.500000" y2="192.000000"  style="stroke:black; stroke-linecap:round; stroke-width:0.25;"/>
<line x1="280.500000" y1="192.000000" x2="290.500000" y2="192.000000"  style="stroke:black; stroke-linecap:round; stroke-width:0.25;"/>
<line x1="289.150000" y1="88.000000" x2="252.250000" y2="88.000000"  style="stroke:black; stroke-linecap:round; stroke-width:0.25;"/>
<line x1="290.500000" y1="192.000000" x2="298.500000" y2="192.000000"  style="stroke:black; stroke-linecap:round; stroke-width:0.25;"/>
<line x1="290.500000" y1="212.000000" x2="298.500000" y2="212.000000"  style="stroke:black; stroke-linecap:round; stroke-width:0.25;"/>
<line x1="290.500000" y1="266.000000" x2="290.500000" y2="212.000000"  style="stroke:black; stroke-linecap:round; stroke-width:0.25;"/>
<line x1="290.500000" y1="266.000000" x2="290.500000" y2="266.000000"  style="stroke:black; stroke-linecap:round; stroke-width:0.25;"/>
<line x1="298.500000" y1="192.000000" x2="298.500000" y2="204.000000"  style="stroke:black; stroke-linecap:round; stroke-width:0.25;"/>
<line x1="298.500000" y1="204.000000" x2="298.500000" y2="204.000000"  style="stroke:black; stroke-linecap:round; stroke-width:0.25;"/>
<line x1="298.500000" y1="204.000000" x2="302.500000" y2="204.000000"  style="stroke:black; stroke-linecap:round; stroke-width:0.25;"/>
<line x1="298.500000" y1="212.000000" x2="302.500000" y2="212.000000"  style="stroke:black; stroke-linecap:round; stroke-width:0.25;"/>
<line x1="326.500000" y1="208.000000" x2="330.500000" y2="208.000000"  style="stroke:black; stroke-linecap:round; stroke-width:0.25;"/>
<line x1="330.500000" y1="208.000000" x2="338.500000" y2="208.000000"  style="stroke:black; stroke-linecap:round; stroke-width:0.25;"/>
<line x1="330.500000" y1="244.000000" x2="338.500000" y2="244.000000"  style="stroke:black; stroke-linecap:round; stroke-width:0.25;"/>
<line x1="330.500000" y1="314.000000" x2="330.500000" y2="244.000000"  style="stroke:black; stroke-linecap:round; stroke-width:0.25;"/>
<line x1="330.500000" y1="314.000000" x2="330.500000" y2="314.000000"  style="stroke:black; stroke-linecap:round; stroke-width:0.25;"/>
<line x1="338.500000" y1="208.000000" x2="338.500000" y2="236.000000"  style="stroke:black; stroke-linecap:round; stroke-width:0.25;"/>
<line x1="338.500000" y1="236.000000" x2="338.500000" y2="236.000000"  style="stroke:black; stroke-linecap:round; stroke-width:0.25;"/>
<line x1="338.500000" y1="236.000000" x2="342.500000" y2="236.000000"  style="stroke:black; stroke-linecap:round; stroke-width:0.25;"/>
<line x1="338.500000" y1="244.000000" x2="342.500000" y2="244.000000"  style="stroke:black; stroke-linecap:round; stroke-width:0.25;"/>
<line x1="366.500000" y1="240.000000" x2="370.500000" y2="240.000000"  style="stroke:black; stroke-linecap:round; stroke-width:0.25;"/>
<line x1="370.500000" y1="118.000000" x2="378.500000" y2="118.000000"  style="stroke:black; stroke-linecap:round; stroke-width:0.25;"/>
<line x1="370.500000" y1="228.000000" x2="378.500000" y2="228.000000"  style="stroke:black; stroke-linecap:round; stroke-width:0.25;"/>
<line x1="370.500000" y1="240.000000" x2="370.500000" y2="228.000000"  style="stroke:black; stroke-linecap:round; stroke-width:0.25;"/>
<line x1="370.500000" y1="240.000000" x2="370.500000" y2="240.000000"  style="stroke:black; stroke-linecap:round; stroke-width:0.25;"/>
<line x1="378.500000" y1="118.000000" x2="378.500000" y2="220.000000"  style="stroke:black; stroke-linecap:round; stroke-width:0.25;"/>
<line x1="378.500000" y1="220.000000" x2="378.500000" y2="220.000000"  style="stroke:black; stroke-linecap:round; stroke-width:0.25;"/>
<line x1="378.500000" y1="220.000000" x2="382.500000" y2="220.000000"  style="stroke:black; stroke-linecap:round; stroke-width:0.25;"/>
<line x1="378.500000" y1="228.000000" x2="382.500000" y2="228.000000"  style="stroke:black; stroke-linecap:round; stroke-width:0.25;"/>
<line x1="406.500000" y1="224.000000" x2="410.500000" y2="224.000000"  style="stroke:black; stroke-linecap:round; stroke-width:0.25;"/>
<line x1="410.500000" y1="224.000000" x2="420.500000" y2="224.000000"  style="stroke:black; stroke-linecap:round; stroke-width:0.25;"/>
<line x1="420.500000" y1="88.000000" x2="289.150000" y2="88.000000"  style="stroke:black; stroke-linecap:round; stroke-width:0.25;"/>
<line x1="420.500000" y1="88.000000" x2="420.500000" y2="88.000000"  style="stroke:black; stroke-linecap:round; stroke-width:0.25;"/>
<line x1="420.500000" y1="220.000000" x2="420.500000" y2="88.000000"  style="stroke:black; stroke-linecap:round; stroke-width:0.25;"/>
<line x1="420.500000" y1="224.000000" x2="422.500000" y2="224.000000"  style="stroke:black; stroke-linecap:round; stroke-width:0.25;"/>
<line x1="422.500000" y1="224.000000" x2="428.500000" y2="224.000000"  style="stroke:black; stroke-linecap:round; stroke-width:0.25;"/>
<line x1="428.500000" y1="188.000000" x2="436.500000" y2="188.000000"  style="stroke:black; stroke-linecap:round; stroke-width:0.25;"/>
<line x1="428.500000" y1="224.000000" x2="428.500000" y2="188.000000"  style="stroke:black; stroke-linecap:round; stroke-width:0.25;"/>
<line x1="428.500000" y1="224.000000" x2="428.500000" y2="224.000000"  style="stroke:black; stroke-linecap:round; stroke-width:0.25;"/>
<line x1="436.500000" y1="188.000000" x2="440.500000" y2="188.000000"  style="stroke:black; stroke-linecap:round; stroke-width:0.25;"/>
<line x1="440.500000" y1="188.000000" x2="444.500000" y2="188.000000"  style="stroke:black; stroke-linecap:round; stroke-width:0.25;"/>
<line x1="444.500000" y1="188.000000" x2="454.500000" y2="188.000000"  style="stroke:black; stroke-linecap:round; stroke-width:0.25;"/>
</svg>
